PathFileType  4	(X/Y/Z) C:\Users\antoi\Documents\MyRepositories\mobilecap\ResultsAnalysis
DataRate	CameraRate	NumFrames	NumMarkers	Units	OrigDataRate	OrigDataStartFrame	OrigNumFrames
100.0	100.0	6	51	mm	100.0	70	138
Frame#	Time	r_knee			r_shank_antsup			r_ankle			r_calc			r_5meta			r_toe			L_knee			L_shank_antsup			L_ankle			L_calc			L_5meta			L_toe			r_sh2			r_sh3			r_sh4			L_sh2			L_sh3			r_thigh1			r_thigh2			r_thigh3			r_thigh4			r_thigh5			L_thigh1			L_thigh2			L_thigh3			L_thigh4			r.ASIS			r.PSIS			L.ASIS			L.PSIS			C7			R_Shoulder			L_Shoulder			R_Sternum			L_Sternum			R_humerus			R_elbow_med			R_elbow_lat			R_forearm			R_wrist_radius			R_wrist_ulna			L_humerus			L_elbow_med			L_elbow_lat			L_forearm			L_wrist_radius			L_wrist_ulna			R_HJC			L_HJC			R_HJC_reg			L_HJC_reg			
		X1	Y1	Z1	X2	Y2	Z2	X3	Y3	Z3	X4	Y4	Z4	X5	Y5	Z5	X6	Y6	Z6	X7	Y7	Z7	X8	Y8	Z8	X9	Y9	Z9	X10	Y10	Z10	X11	Y11	Z11	X12	Y12	Z12	X13	Y13	Z13	X14	Y14	Z14	X15	Y15	Z15	X16	Y16	Z16	X17	Y17	Z17	X18	Y18	Z18	X19	Y19	Z19	X20	Y20	Z20	X21	Y21	Z21	X22	Y22	Z22	X23	Y23	Z23	X24	Y24	Z24	X25	Y25	Z25	X26	Y26	Z26	X27	Y27	Z27	X28	Y28	Z28	X29	Y29	Z29	X30	Y30	Z30	X31	Y31	Z31	X32	Y32	Z32	X33	Y33	Z33	X34	Y34	Z34	X35	Y35	Z35	X36	Y36	Z36	X37	Y37	Z37	X38	Y38	Z38	X39	Y39	Z39	X40	Y40	Z40	X41	Y41	Z41	X42	Y42	Z42	X43	Y43	Z43	X44	Y44	Z44	X45	Y45	Z45	X46	Y46	Z46	X47	Y47	Z47	X48	Y48	Z48	X49	Y49	Z49	X50	Y50	Z50	X51	Y51	Z51	

70	0.69000000	794.59155	462.17202	-31.46846	778.46356	383.08795	-49.48783	480.94511	216.39873	-75.56314	424.69589	260.57448	-116.41705	480.48648	89.45317	-60.58281	537.67947	70.02398	-109.48327	911.12771	492.90652	-317.92521	951.22882	400.35138	-316.27775	899.94456	94.14310	-275.56088	831.68257	64.03538	-227.04809	1004.51509	40.65434	-314.13898	1045.20096	62.75253	-260.28615	676.68513	327.13828	-32.37880	732.94603	450.02657	-20.03638	637.69363	390.81491	-29.38904	859.54699	406.87263	-321.48541	864.52285	283.32125	-320.42796	860.97166	778.19970	-16.02118	857.65037	666.98593	-14.64617	801.35199	642.84712	5.56952	746.98644	779.09760	-3.08241	747.83068	662.87400	-10.59520	882.14483	759.27025	-379.79170	921.19254	629.80649	-348.79725	770.02466	728.83719	-347.48778	815.68748	597.84856	-324.93873	878.08397	946.96771	-57.73781	692.20716	991.23658	-142.31498	896.51766	946.58761	-307.90304	689.73467	1000.78595	-243.40975	690.72543	1402.06458	-207.35666	805.52762	1377.54276	-35.34649	762.30510	1363.34766	-389.87968	833.46774	1375.92388	-196.08487	834.54408	1376.25309	-237.96037	836.08713	1243.36131	23.59993	795.51990	1027.15048	-7.02261	823.38170	1044.62683	53.73680	924.26515	944.18621	49.54259	993.44364	826.37083	39.58267	972.67555	812.77020	65.53541	755.22909	1244.41759	-442.62125	671.80675	1033.32580	-346.77702	671.54855	1046.51840	-425.09480	701.69460	935.75745	-443.27875	676.58923	776.43197	-457.20386	647.63863	787.93164	-471.64499	800.67456	869.43751	-87.25517	811.30536	875.77734	-293.35371	815.45390	865.23478	-98.26263	811.42345	880.79666	-263.03173	
71	0.70000000	817.81609	462.66837	-30.10418	801.43389	384.06540	-48.57300	500.04020	224.53011	-74.92867	445.48943	270.44373	-116.63209	495.48247	97.75615	-59.26748	552.58153	76.22501	-107.36712	915.62168	492.65433	-318.93034	954.99784	399.54800	-317.09432	900.15029	94.11328	-275.51865	831.77863	64.03386	-227.06184	1004.54534	40.58870	-314.21456	1045.30845	62.41751	-260.29181	697.97880	330.55414	-30.78432	757.36712	451.83912	-18.58127	660.81260	394.84590	-28.37904	863.34239	407.05901	-322.61691	867.09495	283.41064	-321.06602	874.09174	780.01216	-16.21648	873.88575	668.71207	-13.69676	817.78025	642.98423	5.97013	759.87012	777.76373	-4.45357	764.22107	661.45170	-10.80139	889.64455	759.37466	-381.20397	927.30217	629.35672	-350.12461	777.04634	730.35912	-348.25360	821.06129	599.03256	-325.60311	887.91663	947.11006	-59.01121	701.75331	991.24875	-143.19852	906.36452	947.28516	-309.31977	699.45015	1001.40297	-244.34814	701.07558	1402.82167	-209.05438	815.00412	1378.28674	-36.40151	773.88359	1363.79071	-391.24870	843.76612	1376.60447	-196.98948	845.05835	1376.90635	-238.82348	845.10268	1244.01900	22.66898	803.72975	1027.96661	-7.85336	831.43197	1045.47179	52.98038	931.16582	943.88318	49.92435	998.65149	824.92383	41.22868	977.76796	811.91667	67.38027	769.09518	1244.40175	-443.99130	687.66694	1031.91933	-349.66765	688.95426	1044.90687	-427.95761	722.53259	934.72278	-445.08045	701.99345	774.54155	-458.62396	673.52399	785.20034	-473.84609	810.56270	869.52294	-88.68497	821.05118	876.46772	-294.77338	825.36534	864.85922	-100.19906	821.61316	881.39853	-264.97330	
72	0.71000000	840.78330	464.00974	-28.99204	824.49103	385.66506	-47.96668	520.06474	232.09827	-74.60371	466.43134	278.63985	-117.15502	513.37264	105.80483	-57.60263	570.29248	82.70144	-105.18817	919.89473	492.45723	-319.80131	958.47866	398.84193	-317.74809	900.32715	94.14707	-275.47625	831.88087	64.05116	-227.06458	1004.57564	40.52730	-314.28232	1045.45671	62.15478	-260.29761	719.60755	334.09602	-29.72336	781.59571	454.13673	-17.59516	683.99987	398.99548	-27.59518	866.90509	407.22709	-323.59311	869.48776	283.53102	-321.60456	886.90404	782.23718	-16.42346	889.69269	671.01139	-12.81848	833.88078	643.66848	6.08760	772.47269	776.83455	-5.83960	780.40078	660.51950	-11.37824	896.82063	759.43169	-382.39107	933.04872	628.90350	-351.21389	783.98864	731.90707	-348.86007	826.22432	600.19569	-325.99417	897.55041	947.28310	-60.07459	711.14735	991.40883	-144.12617	916.06239	947.83687	-310.56327	708.97876	1002.10588	-245.33481	711.31834	1403.65440	-210.69359	824.26474	1378.95282	-37.31153	785.43646	1364.16645	-392.59375	853.90541	1377.28056	-197.83236	855.42628	1377.54584	-239.61234	853.77673	1244.56748	21.89577	811.90921	1028.59648	-8.70257	839.28066	1046.19126	52.25237	937.91202	943.53023	50.40791	1003.77402	823.52043	42.97898	982.76242	811.09371	69.30856	783.10171	1244.32968	-445.28979	703.64166	1030.37479	-352.68402	706.63010	1043.27095	-430.88528	743.70632	933.77497	-446.83214	728.12968	773.11380	-459.72198	700.00457	782.70237	-475.97089	820.13341	869.70515	-89.95851	830.60256	877.08877	-296.03483	835.05619	864.53171	-101.85052	831.52482	881.95027	-266.66300	
73	0.72000000	863.39435	466.17930	-28.14414	847.50949	387.86534	-47.63131	541.03265	238.82150	-74.51200	487.55339	285.15634	-117.82863	533.93221	113.19494	-55.69066	590.57173	88.98269	-103.09078	924.01089	492.32126	-320.56400	961.68363	398.22867	-318.28783	900.47141	94.25419	-275.44526	831.98241	64.09277	-227.05167	1004.60765	40.46394	-314.34984	1045.63723	61.95423	-260.30548	741.58216	337.68186	-29.19574	805.47654	456.89600	-17.06875	707.13043	403.13117	-27.04863	870.22057	407.40068	-324.37798	871.68788	283.69764	-322.00880	899.36637	784.90583	-16.64051	905.10850	673.89407	-12.06184	849.64521	644.99758	5.98042	784.82852	776.34752	-7.26857	796.38162	660.13783	-12.31248	903.75089	759.46018	-383.35404	938.53235	628.48456	-352.09415	790.96691	733.44323	-349.36584	831.34068	601.34603	-326.23111	907.02937	947.61627	-60.96647	720.44476	991.82107	-145.09927	925.62695	948.29999	-311.66876	718.36307	1002.94429	-246.36066	721.45363	1404.61036	-212.24837	833.34975	1379.59375	-38.08641	796.92988	1364.52620	-393.90602	863.88860	1377.98776	-198.60734	865.63201	1378.20895	-240.32854	862.12551	1245.06319	21.27879	820.04867	1029.11042	-9.57401	846.93098	1046.84199	51.54576	944.47360	943.15819	50.98150	1008.76680	822.18291	44.81971	987.60200	810.32406	71.29549	797.24421	1244.25234	-446.50441	719.75765	1028.73230	-355.83222	724.61290	1041.65877	-433.86235	765.19698	932.98139	-448.50741	754.90639	772.18507	-460.54851	727.02454	780.53223	-477.97814	829.45043	870.09954	-91.06341	839.98233	877.69471	-297.13057	844.56417	864.39799	-103.20107	841.17472	882.51084	-268.09064	
74	0.73000000	885.58019	469.09896	-27.57477	870.35768	390.60054	-47.53727	562.90003	244.43306	-74.53802	508.94971	290.00331	-118.48088	556.72545	119.54863	-53.68815	612.99620	94.62038	-101.20546	927.99948	492.24176	-321.23258	964.63114	397.70222	-318.74344	900.59445	94.42521	-275.42547	832.07023	64.16046	-227.02375	1004.64103	40.39793	-314.42001	1045.84035	61.80428	-260.31380	763.88991	341.24981	-29.08605	828.89832	460.05895	-16.93822	730.10706	407.11059	-26.73643	873.28317	407.60176	-324.95289	873.68939	283.92448	-322.25856	911.46374	788.00494	-16.85049	920.21221	677.31752	-11.47530	865.08595	647.01713	5.72664	796.99144	776.29526	-8.74969	812.19246	660.31253	-13.55046	910.50252	759.46900	-384.10519	943.84034	628.11892	-352.79865	798.00531	734.92412	-349.77083	836.51757	602.48878	-326.39933	916.39572	948.23526	-61.74067	729.69535	992.55694	-146.10844	935.06494	948.73536	-312.67976	727.64737	1003.94104	-247.41060	731.47569	1405.71556	-213.70495	842.30228	1380.26646	-38.74960	808.32909	1364.93278	-395.16947	873.72658	1378.75043	-199.30549	875.67309	1378.92528	-240.97365	870.19481	1245.57200	20.79530	828.11268	1029.60364	-10.45702	854.39602	1047.49638	50.85826	950.83187	942.81277	51.62814	1013.57912	820.94135	46.73641	992.23422	809.63725	73.31712	811.49197	1244.24458	-447.62019	736.04211	1027.06220	-359.10689	742.93833	1040.13703	-436.86275	786.97898	932.43077	-450.07473	782.16354	771.75552	-461.19881	754.50115	778.78550	-479.81860	838.59292	870.80480	-91.99351	849.21685	878.33180	-298.05904	853.93023	864.58912	-104.25988	850.59463	883.13290	-269.26611	
75	0.74000000	907.30267	472.64781	-27.29327	892.91201	393.77176	-47.66314	585.56020	248.72275	-74.56216	530.71069	293.17292	-118.96629	581.23111	124.55862	-51.76329	637.09686	99.27146	-99.61648	931.86468	492.21244	-321.80262	967.34785	397.25901	-319.12379	900.72155	94.63368	-275.39997	832.12823	64.25097	-226.98777	1004.67428	40.33249	-314.49142	1046.05614	61.69350	-260.31930	786.47000	344.74678	-29.22119	851.78830	463.54286	-17.10470	752.85612	410.80810	-26.63766	876.10996	407.84515	-325.32515	875.49897	284.22224	-322.35383	923.22505	791.48475	-17.04022	935.09931	681.20018	-11.10133	880.24001	649.70499	5.40213	809.02028	776.63780	-10.25821	827.86626	660.99990	-15.00337	917.14007	759.46624	-384.66215	949.04055	627.81350	-353.34666	805.06794	736.32554	-350.04411	841.78675	603.63014	-326.53095	925.68613	949.23689	-62.45548	738.93761	993.63998	-147.13406	944.37250	949.19623	-313.63554	736.86912	1005.08755	-248.46450	741.37703	1406.97145	-215.06511	851.15961	1381.02267	-39.33411	819.60523	1365.44876	-396.36245	883.43439	1379.57966	-199.91870	885.55894	1379.71387	-241.54768	878.05065	1246.15775	20.40634	836.05471	1030.17658	-11.33677	861.69293	1048.22670	50.19051	956.98036	942.54838	52.32928	1018.16803	819.83369	48.71591	996.62410	809.06906	75.35416	825.78606	1244.39597	-448.62403	752.51543	1025.45921	-362.48728	761.62920	1038.78610	-439.85252	809.01646	932.22509	-451.50040	809.70627	771.82291	-461.76074	782.34380	777.55922	-481.44392	847.64347	871.88322	-92.74865	858.33262	879.02948	-298.82333	863.19703	865.19564	-105.05663	859.82567	883.85386	-270.21171	
